The most Awaited Video from 30 Seconds To Mars.. is out .. and here is it..all clear and HD .. So Download and View and Share..!!


neways..

In Here WE SHARE CZ ITS OUR DUTY..

SO DOWNLOAD AND SHARE.. 

REDCHAIN55 ASSURES THE BEST QUALITY VIRUS FREE FILES..
		





Format                           : MPEG-4
Format profile                   : Base Media / Version 2
Codec ID                         : mp42
File size                        : 116 MiB
Duration                         : 6mn 0s
Overall bit rate                 : 2 694 Kbps

Video
ID                               : 1
Format                           : AVC
Format/Info                      : Advanced Video Codec
Format profile                   : High@L3.1
Format settings, CABAC           : Yes
Format settings, ReFrames        : 1 frame
Codec ID                         : avc1
Codec ID/Info                    : Advanced Video Coding
Duration                         : 6mn 0s
Bit rate mode                    : Variable
Bit rate                         : 2 562 Kbps
Maximum bit rate                 : 15.6 Mbps
Width                            : 1 280 pixels
Height                           : 720 pixels
Display aspect ratio             : 16:9
Frame rate mode                  : Variable
Frame rate                       : 23.976 fps
Minimum frame rate               : 17.241 fps
Maximum frame rate               : 24.390 fps
Color space                      : YUV
Chroma subsampling               : 4:2:0
Bit depth                        : 8 bits
Scan type                        : Progressive
Bits/(Pixel*Frame)               : 0.116
Stream size                      : 110 MiB (95%)
Tagged date                      : UTC 2011-04-04 06:14:50

Audio
ID                               : 2
Format                           : AAC
Format/Info                      : Advanced Audio Codec
Format version                   : Version 4
Format profile                   : LC
Format settings, SBR             : No
Codec ID                         : 40
Duration                         : 6mn 0s
Bit rate mode                    : Variable
Bit rate                         : 126 Kbps
Maximum bit rate                 : 147 Kbps
Channel(s)                       : 2 channels
Channel positions                : Front: L R
Sampling rate                    : 44.1 KHz
Stream size                      : 5.43 MiB (5%)
